<mxfile host="app.diagrams.net" modified="2021-04-07T06:47:25.408Z" agent="5.0 (Macintosh; Intel Mac OS X 10_15_6) AppleWebKit/537.36 (KHTML, like Gecko) Chrome/89.0.4389.114 Safari/537.36" etag="gy1-z0-5VNjbz_wOsmqp" version="14.4.5" type="github">
  <diagram id="LPLT7qblUQMr7MPmFhha" name="Page-1">
    <mxGraphModel dx="1139" dy="574" grid="1" gridSize="10" guides="1" tooltips="1" connect="1" arrows="1" fold="1" page="1" pageScale="1" pageWidth="827" pageHeight="1169" math="0" shadow="0">
      <root>
        <mxCell id="0" />
        <mxCell id="1" parent="0" />
        <mxCell id="-umOjKe_lniliM-Z_1Ou-1" value="Target Revenue Portal&lt;br&gt;UI&lt;br&gt;" style="rounded=0;whiteSpace=wrap;html=1;" vertex="1" parent="1">
          <mxGeometry x="50" y="90" width="120" height="60" as="geometry" />
        </mxCell>
        <mxCell id="-umOjKe_lniliM-Z_1Ou-2" value="Target Revenue Admin &lt;br&gt;Portal&lt;br&gt;UI" style="rounded=0;whiteSpace=wrap;html=1;" vertex="1" parent="1">
          <mxGeometry x="50" y="190" width="120" height="60" as="geometry" />
        </mxCell>
        <mxCell id="-umOjKe_lniliM-Z_1Ou-3" value="NA Target Revenue&lt;br&gt;Mobile&lt;br&gt;" style="rounded=0;whiteSpace=wrap;html=1;" vertex="1" parent="1">
          <mxGeometry x="50" y="290" width="120" height="60" as="geometry" />
        </mxCell>
      </root>
    </mxGraphModel>
  </diagram>
</mxfile>
